<svg id="Capa_1" fill="#fff" enable-background="new 0 0 512 512" height="512" viewBox="0 0 512 512" width="512" xmlns="http://www.w3.org/2000/svg"><g><path d="m181 150h150l-75-56.25z"/><path d="m241 240h30v30h-30z"/><path d="m181 270h30v-45c0-8.284 6.716-15 15-15h60c8.284 0 15 6.716 15 15v45h30v-90h-150z"/><path d="m429.828 107.012c-15.818-31.362-39.531-57.828-68.576-76.537-30.949-19.937-67.345-30.475-105.252-30.475s-74.303 10.538-105.252 30.475c-29.044 18.709-52.757 45.175-68.575 76.536-15.818 31.362-23.007 66.162-20.79 100.64 2.363 36.738 15.521 72.271 38.053 102.756l144.502 195.51c2.828 3.825 7.304 6.083 12.062 6.083s9.234-2.258 12.063-6.084l144.502-195.51c22.531-30.485 35.69-66.018 38.053-102.756 2.217-34.477-4.972-69.277-20.79-100.638zm-39.598 62.731c-2.042 6.125-7.773 10.257-14.23 10.257h-15v105c0 8.284-6.716 15-15 15h-180c-8.284 0-15-6.716-15-15v-105h-15c-6.457 0-12.188-4.132-14.23-10.257s.065-12.869 5.23-16.743l120-90c5.333-4 12.667-4 18 0l120 90c5.165 3.874 7.272 10.618 5.23 16.743z"/></g></svg>